<svg width="471" height="546" viewBox="0 0 471 546" fill="none" xmlns="http://www.w3.org/2000/svg">
<path d="M471 222L428 247.5L425.5 246.5C418.314 233.935 414.5 232 405 230C396.519 229.215 392.389 229.506 386 231.5C340.915 251.108 309.289 274.907 303 307.5C300.132 337.001 315.627 340.89 339.5 323C391.86 293.565 407.773 280.292 419.5 279.5C453.524 274.41 465.102 281.469 471 310.5V337C461.697 395.662 442.129 419.495 396.914 455.104L241 546V456.689L290.692 425.862L292.196 424.829C305.169 460.736 336.935 447.509 379.403 421.729C390.242 414.378 397.812 407.552 402.959 401.068C407.47 395.386 412.29 386.945 415.489 379.89C418.688 372.835 429.522 327.719 399.952 336.5L387.423 342.698L360.859 358.195L317.757 385.571C307.514 391.764 300.185 393.289 289.189 395.902C276.107 396.742 268.245 396.135 260.621 393.836C249.195 388.521 247.778 384.168 241 371V266.161L471 133V222ZM228.5 267V322.416L56.5 222V276.5L166 339V395.5L56.5 330.5V446.087L0 412.5V134L228.5 267Z" fill="#5C1CE4"/>
<path d="M464 123.311L234 248.489L6 124.244L234.5 0L464 123.311ZM211.072 152.27C203.064 152.27 196.573 155.825 196.572 160.21C196.572 164.595 203.064 168.15 211.072 168.15C219.08 168.15 225.572 164.595 225.572 160.21C225.572 155.825 219.08 152.27 211.072 152.27ZM204.572 59.7871L219.572 71.4639L172.572 116.771L243.072 155.072L318.572 133.587L316.072 132.186L225.572 83.1416L226.572 79.4043L237.072 68.1943L213.572 55.1162L204.572 59.7871ZM153.072 132.652L153.202 132.649C151.733 133.913 150.917 135.384 151.007 136.917C151.247 141.038 157.925 144.049 165.921 143.643C173.917 143.236 180.203 139.565 179.964 135.444C179.822 133.015 177.444 130.971 173.878 129.786V128.046L177.072 124.846L169.61 120.508L153.072 132.652Z" fill="#7A42F4"/>
</svg>
